<mxfile host="app.diagrams.net" modified="2021-06-21T07:34:29.510Z" agent="5.0 (Macintosh; Intel Mac OS X 10_15_7) AppleWebKit/537.36 (KHTML, like Gecko) Chrome/89.0.4389.90 Safari/537.36" etag="WehfgUfArF2o63-kIDwl" version="14.8.0" type="github">
  <diagram id="NN3JM0v2hgEeG8ZKTCxq" name="Page-1">
    <mxGraphModel dx="1213" dy="667" grid="1" gridSize="10" guides="1" tooltips="1" connect="1" arrows="1" fold="1" page="1" pageScale="1" pageWidth="850" pageHeight="1100" math="0" shadow="0">
      <root>
        <mxCell id="0" />
        <mxCell id="1" parent="0" />
        <mxCell id="7Y8vt28y_7Y9c8NecXF9-1" value="" style="rounded=0;whiteSpace=wrap;html=1;" vertex="1" parent="1">
          <mxGeometry x="20" y="90" width="180" height="140" as="geometry" />
        </mxCell>
        <mxCell id="7Y8vt28y_7Y9c8NecXF9-2" value="&lt;font style=&quot;font-size: 30px&quot;&gt;Push_swap&lt;/font&gt;" style="text;html=1;strokeColor=none;fillColor=none;align=center;verticalAlign=middle;whiteSpace=wrap;rounded=0;" vertex="1" parent="1">
          <mxGeometry width="210" height="100" as="geometry" />
        </mxCell>
      </root>
    </mxGraphModel>
  </diagram>
</mxfile>
